# Blender v2.78 (sub 0) OBJ File: ''
# www.blender.org
mtllib pooping_poop.mtl
o Poop
v -0.061908 -0.519884 -0.051912
v -0.061983 -0.566704 0.029423
v -0.134240 -0.566681 0.029423
v -0.134166 -0.519884 -0.051912
v -0.063199 -0.424976 0.111001
v -0.064111 -0.396838 0.029876
v -0.136319 -0.400616 0.029865
v -0.135428 -0.427648 0.110995
v -0.080378 -0.512829 0.150751
v -0.152636 -0.520120 0.150751
v -0.194396 -0.234528 -0.070619
v -0.176313 -0.219007 -0.063698
v -0.185522 -0.219715 -0.071252
v -0.195702 -0.232220 -0.073049
v -0.135442 -0.426642 -0.051641
v -0.063213 -0.423967 -0.051635
v -0.206497 -0.577766 0.029423
v -0.206878 -0.496769 0.029504
v -0.206798 -0.498390 -0.013498
v -0.195790 -0.550604 -0.013577
v 0.010351 -0.545227 -0.038247
v 0.010274 -0.578988 0.029424
v -0.224895 -0.551010 0.084206
v 0.009029 -0.440916 0.097342
v 0.008098 -0.410845 0.029886
v -0.008119 -0.531284 0.137085
v -0.206796 -0.498705 0.072471
v 0.009018 -0.440029 -0.037963
v -0.185735 -0.234560 -0.063096
v -0.175204 -0.221682 -0.061241
v 0.078673 -0.559392 -0.038676
v 0.132181 -0.582117 0.015405
v 0.052732 -0.449343 -0.029202
v 0.091630 -0.411699 0.030138
v 0.147542 -0.438743 0.083464
v 0.173957 -0.548656 0.073889
v 0.134289 -0.541292 -0.068837
v 0.216947 -0.549777 -0.076353
v 0.108777 -0.421989 -0.066262
v 0.176344 -0.365365 -0.072120
v 0.261056 -0.379591 -0.079897
v 0.287953 -0.499910 -0.082767
v 0.107081 -0.527452 -0.160799
v 0.202906 -0.525591 -0.278468
v 0.095216 -0.412151 -0.127775
v 0.146102 -0.347533 -0.174279
v 0.205990 -0.353640 -0.241165
v 0.219635 -0.472231 -0.274568
v -0.017955 -0.495948 -0.226134
v 0.018988 -0.492494 -0.369624
v -0.020588 -0.382932 -0.188005
v -0.023800 -0.316489 -0.257503
v -0.023546 -0.319411 -0.350485
v -0.018852 -0.433363 -0.389052
v -0.152836 -0.492443 -0.206863
v -0.249902 -0.502382 -0.289584
v -0.094666 -0.387404 -0.213339
v -0.151867 -0.318650 -0.244016
v -0.242658 -0.318305 -0.271117
v -0.287953 -0.423463 -0.265170
v -0.125571 -0.483074 -0.101591
v -0.202889 -0.480405 -0.056242
v -0.070882 -0.381650 -0.134703
v -0.120931 -0.303721 -0.106838
v -0.202584 -0.297492 -0.059245
v -0.254332 -0.413792 -0.026758
v -0.005737 -0.491843 0.090078
v -0.081800 -0.440229 0.136563
v 0.039648 -0.385181 0.043810
v -0.014182 -0.291376 0.065650
v -0.094002 -0.271401 0.115185
v -0.136473 -0.371700 0.160834
v 0.118445 -0.496492 0.063110
v 0.172963 -0.437349 0.116302
v 0.065834 -0.388239 0.013922
v 0.089486 -0.292553 0.043745
v 0.145831 -0.259254 0.103170
v 0.201780 -0.360049 0.151649
v 0.121445 -0.472452 -0.049140
v 0.178474 -0.419900 -0.051721
v 0.083942 -0.386285 -0.007049
v 0.095996 -0.286643 -0.015576
v 0.130943 -0.238898 -0.049625
v 0.193638 -0.323593 -0.063008
v 0.087119 -0.444351 -0.168040
v 0.158610 -0.404383 -0.159642
v -0.000256 -0.358383 -0.133694
v 0.026339 -0.273466 -0.129069
v 0.109551 -0.233600 -0.161910
v 0.190857 -0.318123 -0.154713
v -0.084402 -0.373729 -0.209615
v -0.069685 -0.339241 -0.267296
v -0.091779 -0.331623 -0.134228
v -0.082004 -0.274220 -0.150706
v -0.067827 -0.241505 -0.212812
v -0.059275 -0.283628 -0.288449
v -0.149611 -0.270803 -0.095364
v -0.169295 -0.270269 -0.112483
v -0.125326 -0.242367 -0.091192
v -0.131923 -0.225974 -0.106016
v -0.153109 -0.226898 -0.123390
v -0.177250 -0.255777 -0.127592
vt 0.6567 0.5337
vt 0.6568 0.4739
vt 0.7028 0.4740
vt 0.7027 0.5337
vt 0.2804 0.2691
vt 0.2367 0.3020
vt 0.2093 0.2650
vt 0.2528 0.2323
vt 0.3316 0.2336
vt 0.2626 0.2267
vt 0.3163 0.1900
vt 0.0505 0.3713
vt 0.0639 0.3629
vt 0.0615 0.3701
vt 0.0517 0.3733
vt 0.1738 0.1007
vt 0.1449 0.1526
vt 0.1042 0.1312
vt 0.1339 0.0778
vt 0.2559 0.1010
vt 0.2374 0.1488
vt 0.2124 0.1386
vt 0.2236 0.1067
vt 0.6097 0.5181
vt 0.6103 0.4701
vt 0.7621 0.4371
vt 0.7490 0.4753
vt 0.7028 0.4707
vt 0.7180 0.3886
vt 0.3056 0.3098
vt 0.2675 0.3373
vt 0.2127 0.1376
vt 0.2088 0.2190
vt 0.1649 0.1870
vt 0.3582 0.2738
vt 0.2628 0.1580
vt 0.2871 0.1313
vt 0.0687 0.0990
vt 0.1013 0.0406
vt 0.6720 0.3849
vt 0.6570 0.4688
vt 0.1926 0.3343
vt 0.1654 0.2973
vt 0.0524 0.3642
vt 0.0626 0.3609
vt 0.2840 0.1296
vt 0.6249 0.3957
vt 0.7423 0.5028
vt 0.7492 0.4704
vt 0.2245 0.3700
vt 0.2617 0.3415
vt 0.5656 0.5141
vt 0.5325 0.4761
vt 0.0471 0.0800
vt 0.0684 0.0110
vt 0.2937 0.3837
vt 0.2434 0.3914
vt 0.3511 0.3859
vt 0.2994 0.3798
vt 0.3572 0.2745
vt 0.4054 0.3872
vt 0.3345 0.3926
vt 0.5073 0.4324
vt 0.5304 0.5356
vt 0.4773 0.5369
vt 0.0015 0.0730
vt 0.0280 0.0000
vt 0.2994 0.4730
vt 0.2579 0.4351
vt 0.3058 0.5099
vt 0.2737 0.4655
vt 0.4065 0.3871
vt 0.4115 0.5142
vt 0.3337 0.5247
vt 0.4645 0.5222
vt 0.4098 0.5139
vt 0.5447 0.5956
vt 0.4795 0.6668
vt 0.3002 0.4167
vt 0.2724 0.4892
vt 0.2325 0.4816
vt 0.2396 0.4052
vt 0.2508 0.5216
vt 0.2305 0.4650
vt 0.2034 0.5494
vt 0.2105 0.4926
vt 0.4052 0.6446
vt 0.3270 0.6342
vt 0.4377 0.6485
vt 0.6232 0.6433
vt 0.5941 0.7330
vt 0.1477 0.4884
vt 0.1478 0.4124
vt 0.1309 0.5448
vt 0.1480 0.4859
vt 0.0540 0.4835
vt 0.0984 0.4444
vt 0.3620 0.8095
vt 0.2872 0.7926
vt 0.4379 0.6592
vt 0.4024 0.7867
vt 0.7096 0.6362
vt 0.7681 0.6927
vt 0.1477 0.4870
vt 0.0997 0.4826
vt 0.0624 0.4175
vt 0.0536 0.5201
vt 0.0000 0.3454
vt 0.0511 0.3774
vt 0.2902 0.8287
vt 0.3639 0.8084
vt 0.3767 0.9964
vt 0.3070 0.9759
vt 0.4226 0.9637
vt 0.6962 0.5681
vt 0.7470 0.5423
vt 0.6331 0.6400
vt 0.6227 0.5887
vt 0.0893 0.4119
vt 0.0471 0.3691
vt 0.1300 0.3341
vt 0.1389 0.3950
vt 0.1186 0.2749
vt 0.9630 0.2132
vt 1.0000 0.2761
vt 0.8648 0.3485
vt 0.8371 0.2696
vt 0.8376 0.6591
vt 0.7883 0.6889
vt 0.7454 0.5431
vt 0.7930 0.5124
vt 0.6238 0.4445
vt 0.6789 0.4122
vt 0.5877 0.4596
vt 0.6608 0.4285
vt 0.2576 0.3126
vt 0.2719 0.3811
vt 0.2483 0.2525
vt 0.7233 0.3730
vt 0.7087 0.2992
vt 0.7294 0.3837
vt 0.6805 0.4117
vt 0.5431 0.4406
vt 0.5203 0.3837
vt 0.2294 0.2507
vt 0.2477 0.3272
vt 0.2330 0.3444
vt 0.1649 0.2983
vt 0.3171 0.3252
vt 0.2844 0.3832
vt 0.3490 0.3678
vt 0.2929 0.3705
vt 0.5127 0.3272
vt 0.5599 0.2631
vt 0.4693 0.4229
vt 0.4850 0.4822
vt 0.4279 0.5276
vt 0.3902 0.4958
vt 0.2261 0.3589
vt 0.1624 0.3709
vt 0.2729 0.4022
vt 0.2861 0.4436
vt 0.2729 0.4030
vt 0.3692 0.3473
vt 0.4449 0.3715
vt 0.3388 0.4607
vt 0.2937 0.4105
vt 0.3773 0.5904
vt 0.3448 0.5496
vt 0.2478 0.4541
vt 0.1674 0.4507
vt 0.2470 0.3447
vt 0.1994 0.4457
vt 0.1659 0.4004
vt 0.2360 0.4956
vt 0.2980 0.5023
vt 0.2383 0.4576
vt 0.3390 0.5439
vt 0.3462 0.5514
vt 0.3637 0.7096
vt 0.3232 0.7153
vt 0.2990 0.4856
vt 0.2619 0.5256
vt 0.1330 0.4684
vt 0.1162 0.4345
vt 0.1209 0.4716
vt 0.1314 0.4273
vt 0.2961 0.5010
vt 0.1165 0.5227
vt 0.1230 0.4711
vt 0.2896 0.5376
vt 0.2855 0.7193
vt 0.2506 0.5602
vt 0.2566 0.5186
vt 0.3585 0.4906
vt 0.3607 0.5015
vt 0.2629 0.5245
vt 0.3584 0.4595
vt 0.3574 0.4782
vt 0.1627 0.4076
vt 0.1311 0.4286
vt 0.0895 0.3976
vt 0.0992 0.3887
vt 0.0790 0.4053
vt 0.1161 0.5259
vt 0.0561 0.4126
vt 0.2667 0.5944
vt 0.3655 0.5130
vt 0.3602 0.4997
vt 0.3571 0.4834
vt 0.3956 0.4806
vt 0.3968 0.4878
vt 0.3963 0.4699
vt 0.1004 0.3877
vt 0.0683 0.3642
vt 0.0701 0.3626
vt 0.0934 0.3956
vt 0.0678 0.3658
vt 0.3977 0.4899
vn -0.0001 -0.8667 -0.4988
vn -0.0423 0.9458 0.3221
vn -0.0282 0.4078 0.9127
vn -0.6020 0.3903 0.6966
vn -0.0000 0.0029 -1.0000
vn -0.9853 -0.0841 -0.1485
vn -0.1810 -0.8650 -0.4680
vn 0.0823 -0.9138 0.3976
vn 0.2218 0.9088 0.3533
vn -0.7715 0.6198 -0.1436
vn 0.2543 0.3527 0.9005
vn -0.7070 0.3837 0.5941
vn -0.4760 -0.0381 -0.8786
vn 0.1873 0.0052 -0.9823
vn 0.0463 -0.9205 0.3880
vn -0.0424 0.9497 -0.3101
vn -0.6021 0.3917 0.6957
vn -0.9714 0.1107 -0.2101
vn -0.1581 -0.9118 0.3791
vn 0.1248 -0.8574 -0.4992
vn 0.2225 0.9131 -0.3416
vn -0.7707 0.6191 0.1506
vn -0.1122 -0.9193 -0.3773
vn 0.0857 0.0560 -0.9947
vn 0.1038 0.8674 -0.4867
vn 0.0204 0.9075 0.4196
vn 0.2379 0.1554 0.9588
vn 0.0492 -0.9001 0.4328
vn -0.0565 -0.8979 -0.4366
vn -0.4949 -0.0655 -0.8665
vn -0.5959 0.7804 -0.1893
vn 0.1181 0.8895 0.4414
vn 0.7817 0.1483 0.6057
vn 0.5377 -0.8278 0.1600
vn -0.1149 -0.9871 -0.1115
vn -0.9563 -0.1865 0.2252
vn -0.6193 0.7300 0.2892
vn 0.1895 0.9767 0.1010
vn 0.9335 0.2033 -0.2954
vn 0.7373 -0.6324 -0.2374
vn -0.1554 -0.9829 -0.0990
vn -0.4987 -0.2866 0.8180
vn -0.2036 0.6894 0.6952
vn 0.1593 0.9872 0.0042
vn 0.4493 0.2963 -0.8428
vn 0.4313 -0.0434 -0.9012
vn 0.0214 -0.9995 0.0230
vn -0.0281 -0.1366 0.9902
vn -0.0667 0.5746 0.8157
vn -0.0073 0.9998 -0.0159
vn -0.3724 0.2038 -0.9054
vn -0.3499 -0.1590 -0.9232
vn 0.0228 -0.9959 0.0872
vn 0.8448 -0.4989 -0.1935
vn 0.7833 0.5679 -0.2530
vn 0.0252 0.9940 -0.1069
vn -0.9016 0.4158 0.1194
vn -0.8082 -0.5621 0.1758
vn -0.2117 -0.9544 0.2106
vn 0.7166 -0.5214 -0.4633
vn 0.7015 0.5541 -0.4482
vn 0.0687 0.9860 -0.1519
vn -0.7805 0.4828 0.3972
vn -0.5731 -0.6490 0.5003
vn 0.0903 -0.6564 0.7489
vn -0.3430 -0.3909 -0.8541
vn -0.3582 0.1921 -0.9137
vn -0.0729 0.8897 -0.4507
vn 0.0157 0.4247 0.9052
vn 0.0551 -0.3695 0.9276
vn 0.7231 -0.6861 -0.0796
vn -0.8817 -0.4168 -0.2210
vn -0.9418 0.2015 -0.2690
vn -0.6773 0.7264 0.1167
vn 0.8393 0.5428 0.0313
vn 0.9699 -0.2401 -0.0405
vn 0.5686 -0.7719 -0.2843
vn -0.7430 -0.6341 0.2140
vn -0.8135 0.1820 0.5523
vn -0.4755 0.8402 0.2605
vn 0.7594 0.6483 -0.0558
vn 0.9578 -0.2535 -0.1353
vn 0.0835 -0.6155 -0.7837
vn -0.3654 -0.7466 0.5559
vn -0.0959 0.1069 0.9896
vn -0.1521 0.8543 0.4971
vn 0.3425 0.6230 -0.7032
vn 0.4019 -0.2224 -0.8883
vn -0.8378 -0.5138 -0.1849
vn -0.2750 -0.6896 0.6699
vn 0.8387 0.1816 0.5133
vn 0.6012 0.7588 0.2505
vn -0.4962 0.6946 -0.5208
vn -0.8327 -0.2311 -0.5031
vn -0.4025 -0.8002 0.4446
vn 0.3405 -0.4103 0.8460
vn 0.5665 0.6672 0.4836
vn 0.0412 0.9925 -0.1152
vn -0.6406 0.6006 -0.4785
vn -0.8474 -0.5278 -0.0581
usemtl Material
s off
f 1/1/1 2/2/1 3/3/1 4/4/1
f 5/5/2 6/6/2 7/7/2 8/8/2
f 9/9/3 5/5/3 8/10/3 10/11/3
f 11/12/4 12/13/4 13/14/4 14/15/4
f 4/16/5 15/17/5 16/18/5 1/19/5
f 17/20/6 18/21/6 19/22/6 20/23/6
f 21/24/7 22/25/7 2/2/7 1/1/7
f 23/26/8 17/27/8 3/28/8 10/29/8
f 24/30/9 25/31/9 6/6/9 5/5/9
f 19/32/10 18/21/10 7/33/10 15/34/10
f 26/35/11 24/30/11 5/5/11 9/9/11
f 27/36/12 23/37/12 10/11/12 8/10/12
f 20/23/13 19/22/13 15/17/13 4/16/13
f 28/38/14 21/39/14 1/19/14 16/18/14
f 9/40/15 10/29/15 3/28/15 2/41/15
f 16/42/16 15/43/16 7/7/16 6/6/16
f 29/44/17 30/45/17 12/13/17 11/12/17
f 23/46/18 27/36/18 18/21/18 17/20/18
f 26/47/19 9/40/19 2/41/19 22/25/19
f 20/48/20 4/4/20 3/3/20 17/49/20
f 28/50/21 16/42/21 6/6/21 25/51/21
f 27/36/22 8/10/22 7/33/22 18/21/22
f 22/25/23 21/24/23 31/52/23 32/53/23
f 21/39/24 28/38/24 33/54/24 31/55/24
f 28/50/25 25/51/25 34/56/25 33/57/25
f 25/31/26 24/30/26 35/58/26 34/59/26
f 24/30/27 26/60/27 36/61/27 35/62/27
f 26/47/28 22/25/28 32/53/28 36/63/28
f 32/53/29 31/52/29 37/64/29 38/65/29
f 31/55/30 33/54/30 39/66/30 37/67/30
f 33/57/31 34/56/31 40/68/31 39/69/31
f 34/59/32 35/58/32 41/70/32 40/71/32
f 35/62/33 36/72/33 42/73/33 41/74/33
f 36/63/34 32/53/34 38/75/34 42/76/34
f 38/65/35 37/64/35 43/77/35 44/78/35
f 37/79/36 39/80/36 45/81/36 43/82/36
f 39/69/37 40/68/37 46/83/37 45/84/37
f 40/71/38 41/70/38 47/85/38 46/86/38
f 41/74/39 42/73/39 48/87/39 47/88/39
f 42/73/40 38/75/40 44/89/40 48/87/40
f 44/78/41 43/77/41 49/90/41 50/91/41
f 43/82/42 45/81/42 51/92/42 49/93/42
f 45/84/43 46/83/43 52/94/43 51/95/43
f 46/86/44 47/85/44 53/96/44 52/97/44
f 47/88/45 48/87/45 54/98/45 53/99/45
f 48/87/46 44/100/46 50/101/46 54/98/46
f 50/91/47 49/90/47 55/102/47 56/103/47
f 49/93/48 51/104/48 57/105/48 55/106/48
f 51/104/49 52/94/49 58/107/49 57/105/49
f 52/97/50 53/96/50 59/108/50 58/109/50
f 53/110/51 54/111/51 60/112/51 59/113/51
f 54/111/52 50/101/52 56/114/52 60/112/52
f 56/103/53 55/102/53 61/115/53 62/116/53
f 55/102/54 57/117/54 63/118/54 61/115/54
f 57/119/55 58/120/55 64/121/55 63/122/55
f 58/109/56 59/108/56 65/123/56 64/121/56
f 59/124/57 60/125/57 66/126/57 65/127/57
f 60/128/58 56/129/58 62/130/58 66/131/58
f 62/130/59 61/115/59 67/132/59 68/133/59
f 61/115/60 63/118/60 69/134/60 67/135/60
f 63/122/61 64/121/61 70/136/61 69/137/61
f 64/121/62 65/123/62 71/138/62 70/136/62
f 65/127/63 66/126/63 72/139/63 71/140/63
f 66/131/64 62/130/64 68/133/64 72/141/64
f 68/142/65 67/132/65 73/143/65 74/144/65
f 67/145/66 69/146/66 75/147/66 73/148/66
f 69/146/67 70/149/67 76/150/67 75/147/67
f 70/136/68 71/138/68 77/151/68 76/152/68
f 71/140/69 72/139/69 78/153/69 77/154/69
f 72/139/70 68/142/70 74/144/70 78/153/70
f 74/155/71 73/156/71 79/157/71 80/158/71
f 73/148/72 75/147/72 81/159/72 79/160/72
f 75/147/73 76/152/73 82/161/73 81/159/73
f 76/152/74 77/151/74 83/162/74 82/163/74
f 77/164/75 78/165/75 84/166/75 83/167/75
f 78/165/76 74/155/76 80/158/76 84/166/76
f 80/158/77 79/157/77 85/168/77 86/169/77
f 79/160/78 81/159/78 87/170/78 85/171/78
f 81/172/79 82/163/79 88/173/79 87/174/79
f 82/163/80 83/162/80 89/175/80 88/173/80
f 83/167/81 84/166/81 90/176/81 89/177/81
f 84/166/82 80/158/82 86/178/82 90/176/82
f 86/179/83 85/168/83 91/180/83 92/181/83
f 85/171/84 87/170/84 93/182/84 91/183/84
f 87/174/85 88/173/85 94/184/85 93/185/85
f 88/173/86 89/175/86 95/186/86 94/187/86
f 89/177/87 90/188/87 96/189/87 95/190/87
f 90/191/88 86/179/88 92/181/88 96/192/88
f 92/193/89 91/194/89 97/195/89 98/196/89
f 91/197/90 93/182/90 99/198/90 97/199/90
f 93/200/91 94/201/91 100/202/91 99/203/91
f 100/202/92 94/201/92 95/186/92 101/204/92
f 101/204/93 95/190/93 96/205/93 102/206/93
f 96/207/94 92/193/94 98/196/94 102/208/94
f 98/209/95 97/210/95 29/211/95 11/212/95
f 97/210/96 99/198/96 30/213/96 29/211/96
f 99/214/97 100/202/97 12/215/97 30/216/97
f 100/217/98 101/204/98 13/14/98 12/218/98
f 101/204/99 102/206/99 14/15/99 13/14/99
f 102/208/100 98/209/100 11/212/100 14/219/100
